<svg width="17" height="21" viewBox="0 0 17 21" fill="none" xmlns="http://www.w3.org/2000/svg">
<path fill-rule="evenodd" clip-rule="evenodd" d="M12.923 8.19977C12.509 8.19977 12.173 7.86377 12.173 7.44977V5.30277C12.173 3.20677 10.468 1.50177 8.372 1.50177H8.356C7.343 1.50177 6.394 1.89177 5.677 2.60277C4.955 3.31677 4.556 4.26977 4.552 5.28577V7.44977C4.552 7.86377 4.216 8.19977 3.802 8.19977C3.388 8.19977 3.052 7.86377 3.052 7.44977V5.30277C3.058 3.86277 3.615 2.53377 4.62 1.53777C5.626 0.540767 6.954 -0.0362332 8.375 0.00176677C11.295 0.00176677 13.673 2.37977 13.673 5.30277V7.44977C13.673 7.86377 13.337 8.19977 12.923 8.19977Z" fill="#9E9E9E"/>
<path fill-rule="evenodd" clip-rule="evenodd" d="M4.542 8.12842C2.864 8.12842 1.5 9.49242 1.5 11.1704V15.4594C1.5 17.1374 2.864 18.5014 4.542 18.5014H12.183C13.86 18.5014 15.225 17.1374 15.225 15.4594V11.1704C15.225 9.49242 13.86 8.12842 12.183 8.12842H4.542ZM12.183 20.0014H4.542C2.037 20.0014 0 17.9644 0 15.4594V11.1704C0 8.66542 2.037 6.62842 4.542 6.62842H12.183C14.688 6.62842 16.725 8.66542 16.725 11.1704V15.4594C16.725 17.9644 14.688 20.0014 12.183 20.0014Z" fill="#9E9E9E"/>
<path fill-rule="evenodd" clip-rule="evenodd" d="M8.3623 15.1756C7.9483 15.1756 7.6123 14.8396 7.6123 14.4256V12.2046C7.6123 11.7906 7.9483 11.4546 8.3623 11.4546C8.7763 11.4546 9.1123 11.7906 9.1123 12.2046V14.4256C9.1123 14.8396 8.7763 15.1756 8.3623 15.1756Z" fill="#9E9E9E"/>
</svg>
