<svg width="24" height="24" viewBox="0 0 24 24" fill="none" xmlns="http://www.w3.org/2000/svg">
<path d="M20.8236 4.98C19.2136 4.82 17.6036 4.7 15.9836 4.61V4.6L15.7636 3.3C15.6136 2.38 15.3936 1 13.0536 1H10.4336C8.10358 1 7.88357 2.32 7.72358 3.29L7.51358 4.57C6.58358 4.63 5.65358 4.69 4.72358 4.78L2.68358 4.98C2.26358 5.02 1.96358 5.39 2.00358 5.8C2.04358 6.21 2.40358 6.51 2.82358 6.47L4.86358 6.27C10.1036 5.75 15.3836 5.95 20.6836 6.48C20.7136 6.48 20.7336 6.48 20.7636 6.48C21.1436 6.48 21.4736 6.19 21.5136 5.8C21.5436 5.39 21.2436 5.02 20.8236 4.98Z" fill="#EB5353"/>
<path d="M18.9856 7.89C18.7456 7.64 18.4156 7.5 18.0756 7.5H5.43561C5.09561 7.5 4.75561 7.64 4.52561 7.89C4.29561 8.14 4.16561 8.48 4.18561 8.83L4.80561 19.09C4.91561 20.61 5.05561 22.51 8.54561 22.51H14.9656C18.4556 22.51 18.5956 20.62 18.7056 19.09L19.3256 8.84C19.3456 8.48 19.2156 8.14 18.9856 7.89ZM13.4156 17.5H10.0856C9.67561 17.5 9.33561 17.16 9.33561 16.75C9.33561 16.34 9.67561 16 10.0856 16H13.4156C13.8256 16 14.1656 16.34 14.1656 16.75C14.1656 17.16 13.8256 17.5 13.4156 17.5ZM14.2556 13.5H9.25561C8.84561 13.5 8.50561 13.16 8.50561 12.75C8.50561 12.34 8.84561 12 9.25561 12H14.2556C14.6656 12 15.0056 12.34 15.0056 12.75C15.0056 13.16 14.6656 13.5 14.2556 13.5Z" fill="#EB5353"/>
</svg>
